# xmcd CD database file
#
# Track frame offsets:
#	150
#	21015
#	39170
#
# Disc length: 800 seconds
#
# Revision: 1
# Processed by: cddbd v1.5PL3 Copyright (c) Steve Scherf et al.
# Submitted via: CDex 1.50Beta7
#
DISCID=15031e03
DTITLE=種ともこ - カギのかかる天国
DYEAR=1900
DGENRE=Japanese Pop
TTITLE0=カギのかかる天国
TTITLE1=コンビニ・午前四時
TTITLE2=You've come at the right time
EXTD=
EXTT0=
EXTT1=
EXTT2=
PLAYORDER=
